<mxfile host="65bd71144e">
    <diagram id="sO0FgtE3e6M6tQiM-BwD" name="Page-1">
        <mxGraphModel dx="1652" dy="1103" grid="1" gridSize="10" guides="1" tooltips="1" connect="1" arrows="1" fold="1" page="1" pageScale="1" pageWidth="827" pageHeight="1169" math="0" shadow="0">
            <root>
                <mxCell id="0"/>
                <mxCell id="1" parent="0"/>
                <mxCell id="8" style="edgeStyle=none;html=1;fontFamily=Lucida Console;fontSize=10;" parent="1" source="2" target="7" edge="1">
                    <mxGeometry relative="1" as="geometry"/>
                </mxCell>
                <mxCell id="2" value="" style="ellipse;fillColor=#000000;strokeColor=none;" parent="1" vertex="1">
                    <mxGeometry x="1269" y="40" width="30" height="30" as="geometry"/>
                </mxCell>
                <mxCell id="6" style="edgeStyle=none;html=1;entryX=0.5;entryY=0;entryDx=0;entryDy=0;fontFamily=Lucida Console;fontSize=10;" parent="1" source="3" target="5" edge="1">
                    <mxGeometry relative="1" as="geometry"/>
                </mxCell>
                <mxCell id="3" value="&lt;font face=&quot;Lucida Console&quot; style=&quot;font-size: 10px&quot;&gt;&lt;b&gt;fetchData()&lt;br&gt;&lt;/b&gt;&lt;div style=&quot;text-align: left&quot;&gt;&lt;span&gt;fetch student list&lt;/span&gt;&lt;/div&gt;&lt;div style=&quot;text-align: left&quot;&gt;&lt;span&gt;cleanData();&lt;/span&gt;&lt;/div&gt;&lt;/font&gt;" style="html=1;align=center;verticalAlign=top;rounded=1;absoluteArcSize=1;arcSize=10;dashed=0;" parent="1" vertex="1">
                    <mxGeometry x="1408.98" y="220" width="140" height="50" as="geometry"/>
                </mxCell>
                <mxCell id="13" style="edgeStyle=none;html=1;entryX=0.993;entryY=0.692;entryDx=0;entryDy=0;entryPerimeter=0;dashed=1;fontFamily=Lucida Console;fontSize=10;exitX=0;exitY=0.5;exitDx=0;exitDy=0;" parent="1" source="5" edge="1">
                    <mxGeometry relative="1" as="geometry">
                        <mxPoint x="1354" y="194.60000000000002" as="targetPoint"/>
                        <Array as="points">
                            <mxPoint x="1371" y="335"/>
                            <mxPoint x="1370.98" y="195"/>
                        </Array>
                    </mxGeometry>
                </mxCell>
                <mxCell id="5" value="&lt;font face=&quot;Lucida Console&quot; style=&quot;font-size: 10px&quot;&gt;&lt;b&gt;cleanData()&lt;br&gt;&lt;/b&gt;&lt;div style=&quot;text-align: left&quot;&gt;&lt;span&gt;clean data&lt;/span&gt;&lt;br&gt;&lt;span&gt;split names into parts (first, middle, last, nicknames)&lt;/span&gt;&lt;br&gt;&lt;/div&gt;&lt;div style=&quot;text-align: left&quot;&gt;&lt;span&gt;capitalize correctly&lt;/span&gt;&lt;/div&gt;&lt;/font&gt;" style="html=1;align=center;verticalAlign=top;rounded=1;absoluteArcSize=1;arcSize=10;dashed=0;whiteSpace=wrap;" parent="1" vertex="1">
                    <mxGeometry x="1406.98" y="290" width="144" height="90" as="geometry"/>
                </mxCell>
                <mxCell id="9" style="edgeStyle=none;html=1;fontFamily=Lucida Console;fontSize=10;exitX=1;exitY=0.5;exitDx=0;exitDy=0;" parent="1" target="3" edge="1">
                    <mxGeometry relative="1" as="geometry">
                        <mxPoint x="1354.98" y="185" as="sourcePoint"/>
                        <Array as="points">
                            <mxPoint x="1380.98" y="185"/>
                            <mxPoint x="1380.98" y="240"/>
                        </Array>
                    </mxGeometry>
                </mxCell>
                <mxCell id="11" style="edgeStyle=none;html=1;entryX=0;entryY=0.5;entryDx=0;entryDy=0;fontFamily=Lucida Console;fontSize=10;" parent="1" target="10" edge="1">
                    <mxGeometry relative="1" as="geometry">
                        <mxPoint x="1354.98" y="185" as="sourcePoint"/>
                    </mxGeometry>
                </mxCell>
                <mxCell id="15" style="edgeStyle=none;html=1;entryX=0.5;entryY=0;entryDx=0;entryDy=0;fontFamily=Lucida Console;fontSize=10;" parent="1" source="7" target="14" edge="1">
                    <mxGeometry relative="1" as="geometry"/>
                </mxCell>
                <mxCell id="7" value="&lt;font face=&quot;Lucida Console&quot; style=&quot;font-size: 10px&quot;&gt;&lt;b&gt;init()&lt;br&gt;&lt;/b&gt;&lt;div style=&quot;text-align: left&quot;&gt;getStudentInfo();&lt;/div&gt;&lt;/font&gt;" style="html=1;align=center;verticalAlign=top;rounded=1;absoluteArcSize=1;arcSize=10;dashed=0;" parent="1" vertex="1">
                    <mxGeometry x="1214" y="90" width="140" height="40" as="geometry"/>
                </mxCell>
                <mxCell id="12" style="edgeStyle=none;html=1;fontFamily=Lucida Console;fontSize=10;dashed=1;entryX=1;entryY=0.342;entryDx=0;entryDy=0;entryPerimeter=0;exitX=-0.014;exitY=0.297;exitDx=0;exitDy=0;exitPerimeter=0;" parent="1" source="10" edge="1">
                    <mxGeometry relative="1" as="geometry">
                        <mxPoint x="1354.98" y="177.10000000000002" as="targetPoint"/>
                    </mxGeometry>
                </mxCell>
                <mxCell id="10" value="&lt;font face=&quot;Lucida Console&quot; style=&quot;font-size: 10px&quot;&gt;&lt;b&gt;fetchImages()&lt;br&gt;&lt;/b&gt;&lt;div style=&quot;text-align: left&quot;&gt;&lt;span&gt;fetch student images&lt;/span&gt;&lt;/div&gt;&lt;/font&gt;" style="html=1;align=center;verticalAlign=top;rounded=1;absoluteArcSize=1;arcSize=10;dashed=0;" parent="1" vertex="1">
                    <mxGeometry x="1406.98" y="165" width="140" height="40" as="geometry"/>
                </mxCell>
                <mxCell id="18" style="edgeStyle=none;html=1;entryX=0.5;entryY=0;entryDx=0;entryDy=0;fontFamily=Lucida Console;fontSize=20;" parent="1" source="14" target="17" edge="1">
                    <mxGeometry relative="1" as="geometry"/>
                </mxCell>
                <mxCell id="14" value="&lt;font face=&quot;Lucida Console&quot; style=&quot;font-size: 10px&quot;&gt;&lt;b&gt;getStudentInfo()&lt;br&gt;&lt;/b&gt;&lt;div style=&quot;text-align: left&quot;&gt;let fetchData();&lt;/div&gt;&lt;div style=&quot;text-align: left&quot;&gt;fetchImages();&lt;/div&gt;&lt;div style=&quot;text-align: left&quot;&gt;&lt;br&gt;&lt;/div&gt;&lt;div style=&quot;text-align: left&quot;&gt;displayStudents();&lt;/div&gt;&lt;div style=&quot;text-align: left&quot;&gt;&lt;br&gt;&lt;/div&gt;&lt;/font&gt;" style="html=1;align=center;verticalAlign=top;rounded=1;absoluteArcSize=1;arcSize=10;dashed=0;" parent="1" vertex="1">
                    <mxGeometry x="1214" y="160" width="140" height="80" as="geometry"/>
                </mxCell>
                <mxCell id="16" value="MODEL" style="text;html=1;resizable=0;autosize=1;align=center;verticalAlign=middle;points=[];fillColor=none;strokeColor=none;rounded=0;fontFamily=Lucida Console;fontSize=20;rotation=-90;" parent="1" vertex="1">
                    <mxGeometry x="1120" y="240" width="80" height="30" as="geometry"/>
                </mxCell>
                <mxCell id="17" value="&lt;font face=&quot;Lucida Console&quot; style=&quot;font-size: 10px&quot;&gt;&lt;b&gt;displayStudents()&lt;br&gt;&lt;/b&gt;&lt;div style=&quot;text-align: left&quot;&gt;forEach / for loop:&lt;/div&gt;&lt;div style=&quot;text-align: left&quot;&gt;- displayName();&lt;/div&gt;&lt;div style=&quot;text-align: left&quot;&gt;- displayHouse();&lt;/div&gt;&lt;div style=&quot;text-align: left&quot;&gt;- displayImage();&lt;/div&gt;&lt;div style=&quot;text-align: left&quot;&gt;- displayBloodStatus();&lt;/div&gt;&lt;div style=&quot;text-align: left&quot;&gt;- displayPrefectStatus();&lt;/div&gt;&lt;div style=&quot;text-align: left&quot;&gt;- displayExpelledStatus();&lt;/div&gt;&lt;div style=&quot;text-align: left&quot;&gt;- displayInquisitorStatus();&lt;/div&gt;&lt;/font&gt;" style="html=1;align=center;verticalAlign=top;rounded=1;absoluteArcSize=1;arcSize=10;dashed=0;" parent="1" vertex="1">
                    <mxGeometry x="1188" y="420" width="190" height="130" as="geometry"/>
                </mxCell>
                <mxCell id="19" value="VIEW" style="text;html=1;resizable=0;autosize=1;align=center;verticalAlign=middle;points=[];fillColor=none;strokeColor=none;rounded=0;fontFamily=Lucida Console;fontSize=20;rotation=-90;" parent="1" vertex="1">
                    <mxGeometry x="1130" y="470" width="60" height="30" as="geometry"/>
                </mxCell>
                <mxCell id="20" value="&lt;font face=&quot;Lucida Console&quot; style=&quot;font-size: 10px&quot;&gt;&lt;b&gt;displayName()&lt;br&gt;&lt;/b&gt;&lt;div style=&quot;text-align: left&quot;&gt;&lt;span&gt;define name variables&lt;/span&gt;&lt;/div&gt;&lt;div style=&quot;text-align: left&quot;&gt;&lt;span&gt;display name in template&lt;/span&gt;&lt;br&gt;&lt;/div&gt;&lt;div style=&quot;text-align: left&quot;&gt;&lt;span&gt;append to parent&lt;/span&gt;&lt;/div&gt;&lt;/font&gt;" style="html=1;align=center;verticalAlign=top;rounded=1;absoluteArcSize=1;arcSize=10;dashed=0;" parent="1" vertex="1">
                    <mxGeometry x="1450" y="420" width="160" height="60" as="geometry"/>
                </mxCell>
                <mxCell id="21" value="&lt;font face=&quot;Lucida Console&quot; style=&quot;font-size: 10px&quot;&gt;&lt;b&gt;displayHouse()&lt;br&gt;&lt;/b&gt;&lt;div style=&quot;text-align: left&quot;&gt;define house variable&lt;/div&gt;&lt;div style=&quot;text-align: left&quot;&gt;display house in template&lt;/div&gt;&lt;div style=&quot;text-align: left&quot;&gt;append to parent&lt;/div&gt;&lt;/font&gt;" style="html=1;align=center;verticalAlign=top;rounded=1;absoluteArcSize=1;arcSize=10;dashed=0;" parent="1" vertex="1">
                    <mxGeometry x="1450" y="490" width="160" height="60" as="geometry"/>
                </mxCell>
                <mxCell id="22" value="&lt;font face=&quot;Lucida Console&quot; style=&quot;font-size: 10px&quot;&gt;&lt;b&gt;displayImage()&lt;br&gt;&lt;/b&gt;&lt;div style=&quot;text-align: left&quot;&gt;define image variable&lt;/div&gt;&lt;div style=&quot;text-align: left&quot;&gt;display image in template&lt;/div&gt;&lt;div style=&quot;text-align: left&quot;&gt;append to parent&lt;/div&gt;&lt;/font&gt;" style="html=1;align=center;verticalAlign=top;rounded=1;absoluteArcSize=1;arcSize=10;dashed=0;" parent="1" vertex="1">
                    <mxGeometry x="1450" y="560" width="160" height="60" as="geometry"/>
                </mxCell>
                <mxCell id="31" style="edgeStyle=none;html=1;entryX=0.5;entryY=0;entryDx=0;entryDy=0;" edge="1" parent="1" source="23" target="25">
                    <mxGeometry relative="1" as="geometry"/>
                </mxCell>
                <mxCell id="23" value="" style="ellipse;fillColor=#000000;strokeColor=none;" vertex="1" parent="1">
                    <mxGeometry x="230" y="20" width="30" height="30" as="geometry"/>
                </mxCell>
                <mxCell id="33" style="edgeStyle=none;html=1;entryX=0.5;entryY=0;entryDx=0;entryDy=0;" edge="1" parent="1" source="25" target="26">
                    <mxGeometry relative="1" as="geometry"/>
                </mxCell>
                <mxCell id="25" value="Initialise" style="html=1;align=center;verticalAlign=top;rounded=1;absoluteArcSize=1;arcSize=10;dashed=0;" vertex="1" parent="1">
                    <mxGeometry x="175" y="70" width="140" height="30" as="geometry"/>
                </mxCell>
                <mxCell id="34" style="edgeStyle=none;html=1;exitX=1;exitY=0.5;exitDx=0;exitDy=0;entryX=0;entryY=0.5;entryDx=0;entryDy=0;" edge="1" parent="1" source="26" target="27">
                    <mxGeometry relative="1" as="geometry"/>
                </mxCell>
                <mxCell id="35" style="edgeStyle=none;html=1;entryX=0;entryY=0.5;entryDx=0;entryDy=0;exitX=1;exitY=0.5;exitDx=0;exitDy=0;" edge="1" parent="1" source="26" target="28">
                    <mxGeometry relative="1" as="geometry">
                        <Array as="points">
                            <mxPoint x="340" y="140"/>
                            <mxPoint x="340" y="190"/>
                        </Array>
                    </mxGeometry>
                </mxCell>
                <mxCell id="36" style="edgeStyle=none;html=1;entryX=0.5;entryY=0;entryDx=0;entryDy=0;" edge="1" parent="1" source="26" target="30">
                    <mxGeometry relative="1" as="geometry"/>
                </mxCell>
                <mxCell id="26" value="fetch student info" style="html=1;align=center;verticalAlign=top;rounded=1;absoluteArcSize=1;arcSize=10;dashed=0;" vertex="1" parent="1">
                    <mxGeometry x="175" y="125" width="140" height="30" as="geometry"/>
                </mxCell>
                <mxCell id="27" value="fetch images" style="html=1;align=center;verticalAlign=top;rounded=1;absoluteArcSize=1;arcSize=10;dashed=0;" vertex="1" parent="1">
                    <mxGeometry x="370" y="125" width="140" height="30" as="geometry"/>
                </mxCell>
                <mxCell id="28" value="fetch data" style="html=1;align=center;verticalAlign=top;rounded=1;absoluteArcSize=1;arcSize=10;dashed=0;" vertex="1" parent="1">
                    <mxGeometry x="370" y="175" width="140" height="30" as="geometry"/>
                </mxCell>
                <mxCell id="47" style="edgeStyle=none;html=1;entryX=0.5;entryY=0;entryDx=0;entryDy=0;" edge="1" parent="1" source="30" target="37">
                    <mxGeometry relative="1" as="geometry"/>
                </mxCell>
                <mxCell id="30" value="clean data" style="html=1;align=center;verticalAlign=top;rounded=1;absoluteArcSize=1;arcSize=10;dashed=0;" vertex="1" parent="1">
                    <mxGeometry x="175" y="200" width="140" height="30" as="geometry"/>
                </mxCell>
                <mxCell id="48" style="edgeStyle=none;html=1;entryX=0;entryY=0.5;entryDx=0;entryDy=0;exitX=1;exitY=0.5;exitDx=0;exitDy=0;" edge="1" parent="1" source="37" target="38">
                    <mxGeometry relative="1" as="geometry">
                        <Array as="points">
                            <mxPoint x="340" y="470"/>
                            <mxPoint x="340" y="350"/>
                        </Array>
                    </mxGeometry>
                </mxCell>
                <mxCell id="49" style="edgeStyle=none;html=1;entryX=0;entryY=0.5;entryDx=0;entryDy=0;exitX=1;exitY=0.5;exitDx=0;exitDy=0;" edge="1" parent="1" source="37" target="44">
                    <mxGeometry relative="1" as="geometry">
                        <Array as="points">
                            <mxPoint x="340" y="470"/>
                            <mxPoint x="340" y="590"/>
                        </Array>
                    </mxGeometry>
                </mxCell>
                <mxCell id="51" style="edgeStyle=none;html=1;entryX=0;entryY=0.5;entryDx=0;entryDy=0;" edge="1" parent="1" source="37" target="41">
                    <mxGeometry relative="1" as="geometry"/>
                </mxCell>
                <mxCell id="70" style="edgeStyle=none;html=1;entryX=0.5;entryY=0;entryDx=0;entryDy=0;" edge="1" parent="1" source="37" target="61">
                    <mxGeometry relative="1" as="geometry"/>
                </mxCell>
                <mxCell id="37" value="&lt;br&gt;&lt;br&gt;&lt;br&gt;&lt;br&gt;&lt;br&gt;&lt;br&gt;&lt;br&gt;&lt;br&gt;display students" style="html=1;align=center;verticalAlign=top;rounded=1;absoluteArcSize=1;arcSize=10;dashed=0;" vertex="1" parent="1">
                    <mxGeometry x="175" y="330" width="140" height="280" as="geometry"/>
                </mxCell>
                <mxCell id="38" value="name" style="html=1;align=center;verticalAlign=top;rounded=1;absoluteArcSize=1;arcSize=10;dashed=0;" vertex="1" parent="1">
                    <mxGeometry x="370" y="335.25" width="140" height="30" as="geometry"/>
                </mxCell>
                <mxCell id="39" value="house" style="html=1;align=center;verticalAlign=top;rounded=1;absoluteArcSize=1;arcSize=10;dashed=0;" vertex="1" parent="1">
                    <mxGeometry x="370" y="375.25" width="140" height="30" as="geometry"/>
                </mxCell>
                <mxCell id="40" value="image" style="html=1;align=center;verticalAlign=top;rounded=1;absoluteArcSize=1;arcSize=10;dashed=0;" vertex="1" parent="1">
                    <mxGeometry x="370" y="415.25" width="140" height="30" as="geometry"/>
                </mxCell>
                <mxCell id="41" value="blood status" style="html=1;align=center;verticalAlign=top;rounded=1;absoluteArcSize=1;arcSize=10;dashed=0;" vertex="1" parent="1">
                    <mxGeometry x="370" y="455.25" width="140" height="30" as="geometry"/>
                </mxCell>
                <mxCell id="42" value="prefect status" style="html=1;align=center;verticalAlign=top;rounded=1;absoluteArcSize=1;arcSize=10;dashed=0;" vertex="1" parent="1">
                    <mxGeometry x="370" y="495.25" width="140" height="30" as="geometry"/>
                </mxCell>
                <mxCell id="43" value="expelled status" style="html=1;align=center;verticalAlign=top;rounded=1;absoluteArcSize=1;arcSize=10;dashed=0;" vertex="1" parent="1">
                    <mxGeometry x="370" y="535.25" width="140" height="30" as="geometry"/>
                </mxCell>
                <mxCell id="44" value="inquisitor status" style="html=1;align=center;verticalAlign=top;rounded=1;absoluteArcSize=1;arcSize=10;dashed=0;" vertex="1" parent="1">
                    <mxGeometry x="370" y="574.75" width="140" height="30" as="geometry"/>
                </mxCell>
                <mxCell id="45" value="MODEL" style="text;html=1;resizable=0;autosize=1;align=center;verticalAlign=middle;points=[];fillColor=none;strokeColor=none;rounded=0;fontFamily=Lucida Console;fontSize=20;rotation=-90;" vertex="1" parent="1">
                    <mxGeometry x="70" y="130" width="80" height="30" as="geometry"/>
                </mxCell>
                <mxCell id="46" value="VIEW" style="text;html=1;resizable=0;autosize=1;align=center;verticalAlign=middle;points=[];fillColor=none;strokeColor=none;rounded=0;fontFamily=Lucida Console;fontSize=20;rotation=-90;" vertex="1" parent="1">
                    <mxGeometry x="80" y="435" width="60" height="30" as="geometry"/>
                </mxCell>
                <mxCell id="52" style="edgeStyle=none;html=1;entryX=0;entryY=0.5;entryDx=0;entryDy=0;" edge="1" parent="1">
                    <mxGeometry relative="1" as="geometry">
                        <mxPoint x="340" y="430" as="sourcePoint"/>
                        <mxPoint x="370" y="430.12" as="targetPoint"/>
                    </mxGeometry>
                </mxCell>
                <mxCell id="53" style="edgeStyle=none;html=1;entryX=0;entryY=0.5;entryDx=0;entryDy=0;" edge="1" parent="1">
                    <mxGeometry relative="1" as="geometry">
                        <mxPoint x="340" y="390.01" as="sourcePoint"/>
                        <mxPoint x="370" y="390.13" as="targetPoint"/>
                    </mxGeometry>
                </mxCell>
                <mxCell id="54" style="edgeStyle=none;html=1;entryX=0;entryY=0.5;entryDx=0;entryDy=0;" edge="1" parent="1">
                    <mxGeometry relative="1" as="geometry">
                        <mxPoint x="340" y="510.01" as="sourcePoint"/>
                        <mxPoint x="370" y="510.13" as="targetPoint"/>
                    </mxGeometry>
                </mxCell>
                <mxCell id="55" style="edgeStyle=none;html=1;entryX=0;entryY=0.5;entryDx=0;entryDy=0;" edge="1" parent="1">
                    <mxGeometry relative="1" as="geometry">
                        <mxPoint x="340" y="549.52" as="sourcePoint"/>
                        <mxPoint x="370" y="549.64" as="targetPoint"/>
                    </mxGeometry>
                </mxCell>
                <mxCell id="56" value="CONTROLLER" style="text;html=1;resizable=0;autosize=1;align=center;verticalAlign=middle;points=[];fillColor=none;strokeColor=none;rounded=0;fontFamily=Lucida Console;fontSize=20;rotation=-90;" vertex="1" parent="1">
                    <mxGeometry x="40" y="1130" width="140" height="30" as="geometry"/>
                </mxCell>
                <mxCell id="57" value="search" style="html=1;align=center;verticalAlign=top;rounded=1;absoluteArcSize=1;arcSize=10;dashed=0;" vertex="1" parent="1">
                    <mxGeometry x="370" y="1290" width="140" height="30" as="geometry"/>
                </mxCell>
                <mxCell id="97" style="edgeStyle=none;html=1;endArrow=none;endFill=0;exitX=1;exitY=0.5;exitDx=0;exitDy=0;" edge="1" parent="1" source="58">
                    <mxGeometry relative="1" as="geometry">
                        <mxPoint x="580" y="1080" as="targetPoint"/>
                        <Array as="points">
                            <mxPoint x="580" y="1184"/>
                        </Array>
                    </mxGeometry>
                </mxCell>
                <mxCell id="58" value="sort" style="html=1;align=center;verticalAlign=top;rounded=1;absoluteArcSize=1;arcSize=10;dashed=0;" vertex="1" parent="1">
                    <mxGeometry x="370" y="1169" width="140" height="30" as="geometry"/>
                </mxCell>
                <mxCell id="98" style="edgeStyle=none;html=1;endArrow=none;endFill=0;exitX=1;exitY=0.5;exitDx=0;exitDy=0;" edge="1" parent="1" source="59">
                    <mxGeometry relative="1" as="geometry">
                        <mxPoint x="580" y="1080" as="targetPoint"/>
                        <Array as="points">
                            <mxPoint x="580" y="1224"/>
                        </Array>
                    </mxGeometry>
                </mxCell>
                <mxCell id="59" value="filter" style="html=1;align=center;verticalAlign=top;rounded=1;absoluteArcSize=1;arcSize=10;dashed=0;" vertex="1" parent="1">
                    <mxGeometry x="370" y="1209" width="140" height="30" as="geometry"/>
                </mxCell>
                <mxCell id="66" style="edgeStyle=none;html=1;entryX=0;entryY=0.5;entryDx=0;entryDy=0;exitX=1;exitY=0.5;exitDx=0;exitDy=0;" edge="1" parent="1" source="61" target="63">
                    <mxGeometry relative="1" as="geometry">
                        <Array as="points">
                            <mxPoint x="340" y="745"/>
                            <mxPoint x="340" y="670"/>
                        </Array>
                    </mxGeometry>
                </mxCell>
                <mxCell id="67" style="edgeStyle=none;html=1;entryX=0;entryY=0.5;entryDx=0;entryDy=0;exitX=1;exitY=0.5;exitDx=0;exitDy=0;" edge="1" parent="1" source="61" target="65">
                    <mxGeometry relative="1" as="geometry">
                        <Array as="points">
                            <mxPoint x="340" y="745"/>
                            <mxPoint x="340" y="820"/>
                        </Array>
                    </mxGeometry>
                </mxCell>
                <mxCell id="61" value="&lt;br&gt;&lt;br&gt;&lt;br&gt;&lt;br&gt;&lt;br&gt;update interface" style="html=1;align=center;verticalAlign=top;rounded=1;absoluteArcSize=1;arcSize=10;dashed=0;" vertex="1" parent="1">
                    <mxGeometry x="175" y="650" width="140" height="190" as="geometry"/>
                </mxCell>
                <mxCell id="62" value="number of students in each house" style="html=1;align=center;verticalAlign=top;rounded=1;absoluteArcSize=1;arcSize=10;dashed=0;whiteSpace=wrap;" vertex="1" parent="1">
                    <mxGeometry x="370" y="700" width="140" height="40" as="geometry"/>
                </mxCell>
                <mxCell id="63" value="total students (not expelled)" style="html=1;align=center;verticalAlign=top;rounded=1;absoluteArcSize=1;arcSize=10;dashed=0;whiteSpace=wrap;" vertex="1" parent="1">
                    <mxGeometry x="370" y="650" width="140" height="40" as="geometry"/>
                </mxCell>
                <mxCell id="64" value="number of expelled students" style="html=1;align=center;verticalAlign=top;rounded=1;absoluteArcSize=1;arcSize=10;dashed=0;whiteSpace=wrap;" vertex="1" parent="1">
                    <mxGeometry x="370" y="750" width="140" height="40" as="geometry"/>
                </mxCell>
                <mxCell id="65" value="number of students currently displayed" style="html=1;align=center;verticalAlign=top;rounded=1;absoluteArcSize=1;arcSize=10;dashed=0;whiteSpace=wrap;" vertex="1" parent="1">
                    <mxGeometry x="370" y="800" width="140" height="40" as="geometry"/>
                </mxCell>
                <mxCell id="68" style="edgeStyle=none;html=1;entryX=0;entryY=0.5;entryDx=0;entryDy=0;" edge="1" parent="1">
                    <mxGeometry relative="1" as="geometry">
                        <mxPoint x="340" y="719.5799999999999" as="sourcePoint"/>
                        <mxPoint x="370" y="719.7" as="targetPoint"/>
                    </mxGeometry>
                </mxCell>
                <mxCell id="69" style="edgeStyle=none;html=1;entryX=0;entryY=0.5;entryDx=0;entryDy=0;" edge="1" parent="1">
                    <mxGeometry relative="1" as="geometry">
                        <mxPoint x="340" y="769.5799999999999" as="sourcePoint"/>
                        <mxPoint x="370" y="769.7" as="targetPoint"/>
                    </mxGeometry>
                </mxCell>
                <mxCell id="90" style="edgeStyle=none;html=1;entryX=1;entryY=0.5;entryDx=0;entryDy=0;" edge="1" parent="1" source="71" target="38">
                    <mxGeometry relative="1" as="geometry">
                        <mxPoint x="620" y="460" as="targetPoint"/>
                        <Array as="points">
                            <mxPoint x="620" y="470"/>
                            <mxPoint x="540" y="470"/>
                            <mxPoint x="540" y="350"/>
                        </Array>
                    </mxGeometry>
                </mxCell>
                <mxCell id="91" style="edgeStyle=none;html=1;entryX=1;entryY=0.5;entryDx=0;entryDy=0;" edge="1" parent="1" source="71" target="44">
                    <mxGeometry relative="1" as="geometry">
                        <Array as="points">
                            <mxPoint x="620" y="470"/>
                            <mxPoint x="540" y="470"/>
                            <mxPoint x="540" y="590"/>
                        </Array>
                    </mxGeometry>
                </mxCell>
                <mxCell id="71" value="display modal (student details pop up)" style="html=1;align=center;verticalAlign=top;rounded=1;absoluteArcSize=1;arcSize=10;dashed=0;whiteSpace=wrap;" vertex="1" parent="1">
                    <mxGeometry x="550" y="955" width="140" height="40" as="geometry"/>
                </mxCell>
                <mxCell id="74" style="edgeStyle=none;html=1;entryX=0;entryY=0.5;entryDx=0;entryDy=0;" edge="1" parent="1">
                    <mxGeometry relative="1" as="geometry">
                        <mxPoint x="565" y="470.04000000000013" as="sourcePoint"/>
                        <mxPoint x="510" y="469.9300000000001" as="targetPoint"/>
                    </mxGeometry>
                </mxCell>
                <mxCell id="75" style="edgeStyle=none;html=1;entryX=0;entryY=0.5;entryDx=0;entryDy=0;" edge="1" parent="1">
                    <mxGeometry relative="1" as="geometry">
                        <mxPoint x="540" y="430.03000000000014" as="sourcePoint"/>
                        <mxPoint x="510" y="429.9099999999999" as="targetPoint"/>
                    </mxGeometry>
                </mxCell>
                <mxCell id="76" style="edgeStyle=none;html=1;entryX=0;entryY=0.5;entryDx=0;entryDy=0;" edge="1" parent="1">
                    <mxGeometry relative="1" as="geometry">
                        <mxPoint x="540" y="390.03000000000014" as="sourcePoint"/>
                        <mxPoint x="510" y="389.9099999999999" as="targetPoint"/>
                    </mxGeometry>
                </mxCell>
                <mxCell id="77" style="edgeStyle=none;html=1;entryX=0;entryY=0.5;entryDx=0;entryDy=0;" edge="1" parent="1">
                    <mxGeometry relative="1" as="geometry">
                        <mxPoint x="540" y="510.0299999999999" as="sourcePoint"/>
                        <mxPoint x="510" y="509.91" as="targetPoint"/>
                    </mxGeometry>
                </mxCell>
                <mxCell id="78" style="edgeStyle=none;html=1;entryX=0;entryY=0.5;entryDx=0;entryDy=0;" edge="1" parent="1">
                    <mxGeometry relative="1" as="geometry">
                        <mxPoint x="540" y="549.43" as="sourcePoint"/>
                        <mxPoint x="510" y="549.31" as="targetPoint"/>
                    </mxGeometry>
                </mxCell>
                <mxCell id="95" style="edgeStyle=none;html=1;exitX=1;exitY=0.5;exitDx=0;exitDy=0;endArrow=none;endFill=0;" edge="1" parent="1" source="81">
                    <mxGeometry relative="1" as="geometry">
                        <mxPoint x="580" y="1080" as="targetPoint"/>
                        <Array as="points">
                            <mxPoint x="580" y="1035"/>
                        </Array>
                    </mxGeometry>
                </mxCell>
                <mxCell id="81" value="expel student" style="html=1;align=center;verticalAlign=top;rounded=1;absoluteArcSize=1;arcSize=10;dashed=0;" vertex="1" parent="1">
                    <mxGeometry x="370" y="1020" width="140" height="30" as="geometry"/>
                </mxCell>
                <mxCell id="92" style="edgeStyle=none;html=1;entryX=0.75;entryY=0;entryDx=0;entryDy=0;exitX=1;exitY=0.5;exitDx=0;exitDy=0;" edge="1" parent="1" source="82" target="37">
                    <mxGeometry relative="1" as="geometry">
                        <mxPoint x="660" y="1075" as="sourcePoint"/>
                        <Array as="points">
                            <mxPoint x="720" y="1075"/>
                            <mxPoint x="720" y="290"/>
                            <mxPoint x="280" y="290"/>
                        </Array>
                    </mxGeometry>
                </mxCell>
                <mxCell id="82" value="make prefect" style="html=1;align=center;verticalAlign=top;rounded=1;absoluteArcSize=1;arcSize=10;dashed=0;" vertex="1" parent="1">
                    <mxGeometry x="370" y="1060" width="140" height="30" as="geometry"/>
                </mxCell>
                <mxCell id="96" style="edgeStyle=none;html=1;endArrow=none;endFill=0;exitX=1;exitY=0.5;exitDx=0;exitDy=0;" edge="1" parent="1" source="83">
                    <mxGeometry relative="1" as="geometry">
                        <mxPoint x="580" y="1080" as="targetPoint"/>
                        <Array as="points">
                            <mxPoint x="580" y="1115"/>
                        </Array>
                    </mxGeometry>
                </mxCell>
                <mxCell id="83" value="make inquisitor" style="html=1;align=center;verticalAlign=top;rounded=1;absoluteArcSize=1;arcSize=10;dashed=0;" vertex="1" parent="1">
                    <mxGeometry x="370" y="1100" width="140" height="30" as="geometry"/>
                </mxCell>
                <mxCell id="84" value="hack" style="html=1;align=center;verticalAlign=top;rounded=1;absoluteArcSize=1;arcSize=10;dashed=0;" vertex="1" parent="1">
                    <mxGeometry x="370" y="1341" width="140" height="30" as="geometry"/>
                </mxCell>
                <mxCell id="89" style="edgeStyle=none;html=1;entryX=0;entryY=0.5;entryDx=0;entryDy=0;" edge="1" parent="1" source="85" target="71">
                    <mxGeometry relative="1" as="geometry"/>
                </mxCell>
                <mxCell id="85" value="view student details" style="html=1;align=center;verticalAlign=top;rounded=1;absoluteArcSize=1;arcSize=10;dashed=0;" vertex="1" parent="1">
                    <mxGeometry x="370" y="960" width="140" height="30" as="geometry"/>
                </mxCell>
                <mxCell id="86" value="&lt;br&gt;&lt;br&gt;&lt;br&gt;&lt;br&gt;&lt;br&gt;&lt;br&gt;listen for input" style="html=1;align=center;verticalAlign=top;rounded=1;absoluteArcSize=1;arcSize=10;dashed=0;" vertex="1" parent="1">
                    <mxGeometry x="175" y="950" width="140" height="200" as="geometry"/>
                </mxCell>
            </root>
        </mxGraphModel>
    </diagram>
</mxfile>